<svg width="2271" height="636" viewBox="0 0 2271 636" xmlns="http://www.w3.org/2000/svg" xmlns:xlink="http://www.w3.org/1999/xlink"><svg viewBox="0 0 110 24.000001" height="24" width="110"><g fill="#ff4e50"><g transform="translate(-9.678 -4.168) scale(.22082)"><path d="M92.27 32.28c1.61-2.8 4.43-5.06 7.73-5.3 3.27.35 5.9 2.69 7.48 5.44 13.87 23.83 27.72 47.67 41.59 71.49 1.85 3.65 5.03 7.52 3.57 11.85-1.18 3.35-4.74 4.7-7.93 5.36-1.4-1.21-2.72-2.58-4.37-3.45-2.37-.92-4.96-.75-7.45-.81-1.8-2.26-3.88-4.68-6.94-5.03-4.2-1.04-8.26 1.38-10.36 4.94-8.44-3.39-12.47-12.47-14.36-20.79-.7.02-2.09.05-2.79.07-1.93 8.28-5.88 17.28-14.27 20.71-2.25-3.75-6.8-6.17-11.15-4.76-2.74.51-4.59 2.7-6.16 4.82-2.42.1-4.93-.05-7.26.75-1.8.8-3.18 2.27-4.63 3.57-3.14-.65-6.67-1.92-7.9-5.2-1.5-4.19 1.38-8.07 3.23-11.61 10.19-17.26 20.15-34.67 30.3-51.96 3.8-6.75 7.78-13.39 11.67-20.09m4.78 21.78c-2.35 3.56-3.4 7.79-4.3 11.9-1.46 5.806-.86 8.552-2.497 12.458-1.49 3.57-3.87 7.886-4.413 11.232 3.73 1.11 7.64.78 11.48.78.89.68 1.78 1.34 2.68 2.01.89-.67 1.77-1.34 2.65-2.01 3.92-.04 8.03.54 11.68-1.23-.46-5.36-4.57-9.37-5.91-14.44-.374-2.228-.646-4.9-.91-6.55-.5-2.41-1.14-4.79-1.79-7.17-1.26-3.09-2.38-6.49-4.96-8.76-1.48-1.17-2.86.77-3.71 1.78z"/><circle cx="99.961" cy="67.188" r="3.408" opacity=".99" stroke="#ff4e50" stroke-width=".08"/></g><path d="M34.57 14.207L41.885.823s5.048 9.025 7.37 13.384h-2.26l-1.687-2.822-6.856-.017-1.625 2.84zm7.342-9.73l-2.58 5.086h5.14zM52.556.78h6.367q1.516 0 2.502 1.033.985 1.032.985 2.86 0 1.827-.985 2.86-.53.556-1.516.715l2.955 6.118H60.97l-2.73-5.88H54.3v5.88h-1.744V.78zM54.3 2.29v4.687h4.472q.758 0 1.288-.556.53-.555.53-1.747 0-1.112-.605-1.748-.607-.636-1.44-.636h-4.246zM68.566.764h8.22v1.484h-6.5v4.14h6.052V7.87h-6.053v4.765h6.875v1.484h-8.594V.763zM81.203.72h9.995v1.513H87.04v12.11h-1.678V2.233h-4.16V.72zM93.52 7.573q0-3.282 2.21-5.157 1.932-1.64 4.694-1.64 2.76 0 4.694 1.64 2.21 1.875 2.21 5.157 0 3.28-2.21 5.157-1.933 1.64-4.694 1.64-2.762 0-4.695-1.64-2.21-1.876-2.21-5.157zm6.904-5.313q-1.75 0-3.13 1.172-1.565 1.328-1.565 4.14 0 2.814 1.564 4.142 1.38 1.172 3.13 1.172t3.13-1.172q1.564-1.328 1.564-4.14 0-2.814-1.565-4.142-1.38-1.172-3.13-1.172z" style="line-height:125%;-inkscape-font-specification:'MS UI Gothic'" font-size="21.167" font-family="MS UI Gothic" letter-spacing="0" word-spacing="0"/><path d="M38.488 21.428q0 .677-.297 1.228-.292.55-.783.854-.34.21-.76.304-.417.093-1.1.093H34.29V18.94h1.242q.728 0 1.155.105.43.104.727.287.507.317.79.845.284.527.284 1.25zm-.69-.01q0-.584-.204-.984-.203-.4-.607-.63-.294-.168-.624-.23-.33-.067-.79-.067h-.62v3.834h.62q.476 0 .83-.07.357-.07.654-.26.37-.236.554-.623.188-.387.188-.968zm7.092 2.622h-3.274v-4.967h3.273v.587h-2.613v1.36h2.612v.59h-2.613v1.844h2.612v.587zm7.2-4.967l-1.81 4.968h-.88l-1.808-4.967h.707l1.557 4.37 1.56-4.37h.673zm6.348 4.967h-3.273v-4.967h3.273v.587h-2.612v1.36h2.612v.59h-2.612v1.844h2.612v.587zm6.649-.044h-3.143v-4.968h.66v4.38h2.483v.588zm6.909-4.396q.304.333.464.816.163.484.163 1.098 0 .614-.166 1.1-.164.485-.46.808-.308.337-.728.508-.418.17-.955.17-.524 0-.955-.174-.427-.173-.727-.504-.3-.33-.464-.81-.16-.48-.16-1.098 0-.607.16-1.088.16-.483.466-.827.294-.328.728-.502.437-.173.95-.173.534 0 .958.177.427.173.724.497zm-.06 1.914q0-.968-.434-1.49-.433-.53-1.184-.53-.758 0-1.19.53-.432.522-.432 1.49 0 .978.44 1.498.44.517 1.182.517.74 0 1.178-.518.44-.52.44-1.498zm7.621-.966q0 .33-.117.614-.113.28-.32.487-.257.256-.608.386-.35.127-.884.127h-.66v1.852h-.66v-4.968h1.347q.447 0 .757.076.31.074.55.233.285.19.438.474.157.284.157.717zm-.688.016q0-.257-.09-.447t-.274-.31q-.16-.104-.367-.147-.205-.046-.518-.046h-.654V21.6h.557q.4 0 .65-.07.25-.075.408-.23.156-.16.22-.338.066-.177.066-.397zm9.111 3.482h-.66v-4.28l-1.382 2.912h-.393l-1.372-2.912v4.28h-.617v-4.968h.9l1.326 2.766 1.28-2.766h.918v4.968zm7.298-.031h-3.273v-4.968h3.273v.587h-2.613v1.36h2.613v.588h-2.613v1.846h2.613v.587zm7.145-.032h-.817L99.25 19.54v4.443h-.617v-4.968h1.025l2.148 4.057v-4.057h.617v4.968zm7.233-4.317h-1.775v4.38h-.66v-4.38h-1.775v-.588h4.21v.588z" style="line-height:125%" font-family="sans-serif" letter-spacing="0" word-spacing="0"/></g></svg><svg viewBox="0 0 72.000003 28.799999" height="36" width="90" fill-rule="evenodd" x="110" y="24"><path d="M18 805.89h54c9.941 0 18 8.059 18 18s-8.059 18-18 18H18c-9.941 0-18-8.059-18-18s8.059-18 18-18z" fill="none" transform="matrix(.78598 0 0 .7658 .633 -616.527)" stroke="#fff" stroke-width="1.6"/></svg><svg viewBox="0 0 180 31.999999" height="40" width="225" fill-rule="evenodd" x="200" y="60"><path d="M15.967.066h148.06c8.841 0 16.008 7.157 16.008 15.987 0 8.828-7.167 15.986-16.007 15.986H15.968C7.126 32.04-.04 24.881-.04 16.053-.04 7.223 7.127.066 15.967.066z" fill="#ff4e50"/></svg><svg width="280" height="40" viewBox="0 0 180 31.999999" fill-rule="evenodd" x="425" y="100"><path d="M-5.956.003L186 .029c8.84 0 16.007 7.157 16.007 15.986 0 8.83-7.166 15.987-16.007 15.987l-191.96.005c-8.84 0-16-7.267-16-16.096C-21.96 7.08-14.797 0-5.957.002z" fill="#ff4e50"/></svg><svg width="70" height="20" viewBox="0 0 56.000002 15.999999" fill-rule="evenodd" x="705" y="140"><path d="M8.001.013h40.007c4.42 0 8.001 3.579 8.001 7.993 0 4.415-3.582 7.994-8.001 7.994H8.001C3.582 16 0 12.42 0 8.006S3.582.013 8.001.013z" fill="#ff4e50"/></svg><svg viewBox="0 0 153.60001 31.999999" height="40" width="192" fill-rule="evenodd" x="775" y="160"><path d="M20 801.89h152c11.046 0 20 8.954 20 20s-8.954 20-20 20H20c-11.046 0-20-8.954-20-20s8.954-20 20-20z" transform="matrix(.7915 0 0 .76047 .843 -609.04)" fill="none" stroke="#ff4e50" stroke-width="2.001"/></svg><svg width="280" height="40" viewBox="0 0 224.00001 31.999999" fill-rule="evenodd" x="967" y="200"><path d="M20 801.89l240.83.12c11.046.006 20 8.954 20 20s-8.954 20.006-20 20L20 841.89c-11.046-.006-20-8.954-20-20s8.954-20.006 20-20z" transform="matrix(.7915 0 0 .76047 .843 -609.04)" fill="none" stroke="#ff4e50" stroke-width="2.001"/></svg><svg viewBox="0 0 128.00001 31.999999" height="40" width="160" fill-rule="evenodd" x="1247" y="240"><path d="M15.98.198h95.879c8.825 0 15.98 7.119 15.98 15.9 0 8.782-7.155 15.902-15.98 15.902h-95.88C7.155 32 0 24.88 0 16.099 0 7.317 7.154.198 15.98.198z" fill="#ff4e50"/></svg><svg width="280" height="40" viewBox="0 0 224.00002 31.999999" fill-rule="evenodd" x="1407" y="280"><path d="M15.98.198h192.099c8.826 0 15.98 7.119 15.98 15.9 0 8.782-7.154 15.902-15.98 15.902h-192.1C7.155 32 0 24.88 0 16.099 0 7.317 7.154.198 15.98.198z" fill="#ff4e50"/></svg><svg viewBox="0 0 24.000001 43.999998" height="55" width="30" fill-rule="evenodd" x="1687" y="320"><path d="M22.819 43.985L.004 21.993 22.819 0 24 1.21 2.44 21.993 24 42.777l-1.181 1.208z" fill="#fff" opacity=".512"/></svg><svg width="180" height="21" viewBox="0 0 180 21" x="1717" y="375"><path style="line-height:125%;-inkscape-font-specification:'Montserrat Bold'" d="M5.743 16.458q.836 1.002 2.252 1.002t2.232-1.002q.837-1.022.837-2.775V5.628h3.346v8.159q0 3.172-1.802 4.883-1.802 1.69-4.613 1.69-2.81 0-4.634-1.711-1.802-1.711-1.802-4.862V5.628h3.347v8.055q0 1.752.837 2.775zm24.329-5.989q0 3.506-2.854 4.528l3.798 5.217h-4.12l-3.325-4.653h-2.317v4.653h-3.347V5.628h5.685q3.497 0 4.978 1.148 1.502 1.147 1.502 3.693zm-6.373 2.275q1.717 0 2.339-.543.622-.542.622-1.71 0-1.19-.643-1.629-.644-.438-2.253-.438h-2.51v4.32h2.445zm9.796 7.47V5.628h3.347v11.685h6.393v2.901h-9.74zm22.879 0l-1.395-3.15h-6.286l-1.395 3.15h-3.561l6.479-14.586h3.24l6.479 14.586h-3.561zM51.847 9.968l-1.888 4.236h3.754l-1.866-4.236zm13.358 6.49q.836 1.002 2.252 1.002t2.232-1.002q.836-1.022.836-2.775V5.628h3.347v8.159q0 3.172-1.802 4.883-1.802 1.69-4.613 1.69-2.81 0-4.634-1.711-1.802-1.711-1.802-4.862V5.628h3.347v8.055q0 1.752.837 2.775zm18.729 3.756h-6.566V5.628h5.836q1.523 0 2.618.355 1.115.355 1.673.96 1.009 1.127 1.009 2.545 0 1.712-1.138 2.546-.386.292-.536.376-.15.062-.536.23 1.394.292 2.21 1.23.836.919.836 2.296 0 1.523-1.072 2.692-1.245 1.356-4.334 1.356zm-3.219-8.68h1.588q1.395 0 2.06-.293.686-.292.686-1.252 0-.98-.622-1.293-.622-.313-2.102-.313h-1.61v3.15zm0 5.926h2.296q1.438 0 2.146-.334.73-.355.73-1.357 0-1.022-.773-1.335-.751-.334-2.425-.334h-1.974v3.36zm16.273-9.307q-.837 0-1.33.396-.472.376-.472 1.023 0 .626.579 1.002.6.375 2.725.897 2.145.5 3.325 1.523 1.18 1.023 1.18 2.984 0 1.962-1.523 3.193-1.502 1.21-3.97 1.21-3.56 0-6.414-2.567l1.995-2.378q2.425 2.065 4.484 2.065.923 0 1.438-.375.536-.397.536-1.044 0-.667-.558-1.043-.558-.396-2.21-.793-2.617-.605-3.84-1.565-1.201-.98-1.201-3.046 0-2.087 1.523-3.214 1.545-1.127 3.84-1.127 1.502 0 3.004.501 1.502.5 2.617 1.419l-1.695 2.379q-1.952-1.44-4.033-1.44zm18.616 4.632h3.368v5.175q-2.231 2.42-6.179 2.42-3.304 0-5.557-2.128-2.231-2.128-2.231-5.362 0-3.255 2.274-5.426 2.296-2.17 5.514-2.17 3.24 0 5.621 2.066l-1.738 2.441q-1.008-.855-1.866-1.168-.837-.334-1.824-.334-1.91 0-3.218 1.273-1.309 1.252-1.309 3.318t1.245 3.318q1.265 1.23 3.003 1.23 1.738 0 2.897-.646v-4.007zm6.35 7.429V5.628h3.347v11.685h6.394v2.901h-9.74zm16.164-3.756q.836 1.002 2.252 1.002t2.232-1.002q.836-1.022.836-2.775V5.628h3.347v8.159q0 3.172-1.802 4.883-1.802 1.69-4.613 1.69-2.81 0-4.634-1.711-1.802-1.711-1.802-4.862V5.628h3.347v8.055q0 1.752.837 2.775zm-.987-12.812q-.45-.46-.45-1.106 0-.647.45-1.085.472-.46 1.137-.46t1.115.46q.472.438.472 1.085t-.472 1.106q-.45.438-1.115.438t-1.137-.438zm4.14 0q-.45-.46-.45-1.106 0-.647.45-1.085.472-.46 1.138-.46.665 0 1.115.46.472.438.472 1.085t-.472 1.106q-.45.438-1.115.438-.666 0-1.138-.438zm15.898 13.688q2.467 0 4.033-1.898l2.146 2.149q-2.554 2.796-6.03 2.796-3.454 0-5.706-2.129-2.232-2.128-2.232-5.362 0-3.255 2.275-5.426 2.295-2.17 5.6-2.17 3.69 0 6.178 2.734l-2.08 2.295q-1.588-1.92-3.948-1.92-1.888 0-3.24 1.21-1.33 1.19-1.33 3.235 0 2.024 1.265 3.255 1.266 1.231 3.069 1.231zm8.827-11.706h3.346v5.989l5.665-5.989h4.14l-5.964 6.448q.772 1.043 2.853 3.902 2.082 2.838 3.111 4.236h-3.904l-4.399-5.76-1.501 1.628v4.132h-3.347V5.628z" font-weight="700" font-family="Montserrat" letter-spacing="0" word-spacing="0" fill="#fff"/></svg><svg width="180" height="21" viewBox="0 0 180 21" x="1897" y="396"><path style="line-height:125%;-inkscape-font-specification:'Montserrat Bold'" d="M5.743 16.458q.836 1.002 2.252 1.002t2.232-1.002q.837-1.022.837-2.775V5.628h3.346v8.159q0 3.172-1.802 4.883-1.802 1.69-4.613 1.69-2.81 0-4.634-1.711-1.802-1.711-1.802-4.862V5.628h3.347v8.055q0 1.752.837 2.775zm24.329-5.989q0 3.506-2.854 4.528l3.798 5.217h-4.12l-3.325-4.653h-2.317v4.653h-3.347V5.628h5.685q3.497 0 4.978 1.148 1.502 1.147 1.502 3.693zm-6.373 2.275q1.717 0 2.339-.543.622-.542.622-1.71 0-1.19-.643-1.629-.644-.438-2.253-.438h-2.51v4.32h2.445zm9.796 7.47V5.628h3.347v11.685h6.393v2.901h-9.74zm22.879 0l-1.395-3.15h-6.286l-1.395 3.15h-3.561l6.479-14.586h3.24l6.479 14.586h-3.561zM51.847 9.968l-1.888 4.236h3.754l-1.866-4.236zm13.358 6.49q.836 1.002 2.252 1.002t2.232-1.002q.836-1.022.836-2.775V5.628h3.347v8.159q0 3.172-1.802 4.883-1.802 1.69-4.613 1.69-2.81 0-4.634-1.711-1.802-1.711-1.802-4.862V5.628h3.347v8.055q0 1.752.837 2.775zm18.729 3.756h-6.566V5.628h5.836q1.523 0 2.618.355 1.115.355 1.673.96 1.009 1.127 1.009 2.545 0 1.712-1.138 2.546-.386.292-.536.376-.15.062-.536.23 1.394.292 2.21 1.23.836.919.836 2.296 0 1.523-1.072 2.692-1.245 1.356-4.334 1.356zm-3.219-8.68h1.588q1.395 0 2.06-.293.686-.292.686-1.252 0-.98-.622-1.293-.622-.313-2.102-.313h-1.61v3.15zm0 5.926h2.296q1.438 0 2.146-.334.73-.355.73-1.357 0-1.022-.773-1.335-.751-.334-2.425-.334h-1.974v3.36zm16.273-9.307q-.837 0-1.33.396-.472.376-.472 1.023 0 .626.579 1.002.6.375 2.725.897 2.145.5 3.325 1.523 1.18 1.023 1.18 2.984 0 1.962-1.523 3.193-1.502 1.21-3.97 1.21-3.56 0-6.414-2.567l1.995-2.378q2.425 2.065 4.484 2.065.923 0 1.438-.375.536-.397.536-1.044 0-.667-.558-1.043-.558-.396-2.21-.793-2.617-.605-3.84-1.565-1.201-.98-1.201-3.046 0-2.087 1.523-3.214 1.545-1.127 3.84-1.127 1.502 0 3.004.501 1.502.5 2.617 1.419l-1.695 2.379q-1.952-1.44-4.033-1.44zm18.616 4.632h3.368v5.175q-2.231 2.42-6.179 2.42-3.304 0-5.557-2.128-2.231-2.128-2.231-5.362 0-3.255 2.274-5.426 2.296-2.17 5.514-2.17 3.24 0 5.621 2.066l-1.738 2.441q-1.008-.855-1.866-1.168-.837-.334-1.824-.334-1.91 0-3.218 1.273-1.309 1.252-1.309 3.318t1.245 3.318q1.265 1.23 3.003 1.23 1.738 0 2.897-.646v-4.007zm6.35 7.429V5.628h3.347v11.685h6.394v2.901h-9.74zm16.164-3.756q.836 1.002 2.252 1.002t2.232-1.002q.836-1.022.836-2.775V5.628h3.347v8.159q0 3.172-1.802 4.883-1.802 1.69-4.613 1.69-2.81 0-4.634-1.711-1.802-1.711-1.802-4.862V5.628h3.347v8.055q0 1.752.837 2.775zm-.987-12.812q-.45-.46-.45-1.106 0-.647.45-1.085.472-.46 1.137-.46t1.115.46q.472.438.472 1.085t-.472 1.106q-.45.438-1.115.438t-1.137-.438zm4.14 0q-.45-.46-.45-1.106 0-.647.45-1.085.472-.46 1.138-.46.665 0 1.115.46.472.438.472 1.085t-.472 1.106q-.45.438-1.115.438-.666 0-1.138-.438zm15.898 13.688q2.467 0 4.033-1.898l2.146 2.149q-2.554 2.796-6.03 2.796-3.454 0-5.706-2.129-2.232-2.128-2.232-5.362 0-3.255 2.275-5.426 2.295-2.17 5.6-2.17 3.69 0 6.178 2.734l-2.08 2.295q-1.588-1.92-3.948-1.92-1.888 0-3.24 1.21-1.33 1.19-1.33 3.235 0 2.024 1.265 3.255 1.266 1.231 3.069 1.231zm8.827-11.706h3.346v5.989l5.665-5.989h4.14l-5.964 6.448q.772 1.043 2.853 3.902 2.082 2.838 3.111 4.236h-3.904l-4.399-5.76-1.501 1.628v4.132h-3.347V5.628z" font-weight="700" font-family="Montserrat" letter-spacing="0" word-spacing="0" fill="#ff4e50"/></svg><svg viewBox="0 0 24.000001 43.999998" height="55" width="30" fill-rule="evenodd" x="2077" y="417"><path d="M1.185 43.985L24 21.99 1.185-.004.004 1.203l21.56 20.787L.003 42.777l1.181 1.208z" fill="#fff" opacity=".569"/></svg><svg viewBox="0 0 32.8 32.799999" height="41" width="41" fill-rule="evenodd" x="2107" y="472"><ellipse ry="14.222" rx="14.222" cy="825.316" cx="16.084" opacity=".99" fill="#1cd7ad" stroke="#fff" stroke-width="3.556" transform="translate(0 -809.09)"/><path d="M20.405 20.884a45.792 46.783 0 0 0-1.626-.084 5.477 5.596 0 0 0 1.337-1.838 1.272 1.3 0 0 0 .905.39 1.29 1.318 0 0 0 1.246-1.014 1.3 1.328 0 0 0-.151-1.003 1.275 1.303 0 0 0-1.407-.591c.024-.237.039-.476.039-.72a.45.46 0 0 0-.447-.462H12.03a.45.46 0 0 0-.448.462c0 1.976.78 3.723 1.967 4.777a45.799 46.79 0 0 0-1.624.083c-1.673.12-2.16.236-2.16.765s.487.644 2.16.764c1.134.082 2.64.128 4.24.128s3.107-.046 4.241-.128c1.674-.12 2.16-.236 2.16-.764s-.486-.645-2.16-.765zm.215-3.515c.003-.003.007-.002.01-.005a.745.76 0 0 1 1.028.259.758.775 0 0 1-.25 1.061.74.757 0 0 1-1.027-.258c-.008-.014-.022-.023-.032-.035.114-.326.204-.669.27-1.022zm-8.128-.884h7.346c-.176 2.489-1.756 4.442-3.673 4.442s-3.497-1.953-3.673-4.442zm2.844-1.867l.03.002a.36.368 0 0 0 .338-.496c-.004-.01-.346-1.03.098-1.88.472-.81.627-1.461.458-1.937a.86.88 0 0 0-.532-.552.363.371 0 0 0-.446.25c-.056.195.052.402.227.455.002 0 .05.025.078.103.04.114.084.468-.387 1.278l-.018.03a6.528 6.669 0 0 1-.116.192c-.544.863-.708 1.542-.485 2.018a.965.965 0 0 0 .755.537zm1.908.069h.025a.34.348 0 0 0 .317-.465c-.002-.006-.194-.584.05-1.051.314-.537.409-.96.291-1.294a.644.658 0 0 0-.404-.413.34.347 0 1 0-.229.654c.007.018.056.193-.224.676l-.021.035-.063.102c-.364.576-.464 1.02-.305 1.358.124.265.376.38.563.398z" fill="#fffbff"/></svg><svg viewBox="0 0 32.8 32.799999" height="41" width="41" fill-rule="evenodd" x="2148" y="513"><ellipse ry="14.222" rx="14.222" cy="825.316" cx="16.084" opacity=".99" fill="#ffa507" stroke="#fff" stroke-width="3.556" transform="translate(0 -809.09)"/><g fill="#fff"><path d="M20.881 20.551l-2.44-6.599V12.01c.46-.16.792-.595.792-1.106v-.317c0-.646-.528-1.17-1.178-1.17h-3.482c-.649 0-1.177.524-1.177 1.17v.317c0 .51.33.945.792 1.105v1.943l-2.436 6.586a1.17 1.17 0 0 0 1.091 1.613h6.943a1.178 1.178 0 0 0 .977-.517c.219-.325.262-.734.118-1.083zm-6.455-1.496c0-.22.179-.398.4-.398a.4.4 0 1 1 0 .797.4.4 0 0 1-.4-.399zm2.586.348c.384 0 .693.31.693.689a.693.693 0 0 1-.693.69.692.692 0 0 1-.693-.69c0-.38.31-.689.693-.689zm-.59-1.51a.5.5 0 0 1 1 0 .5.5 0 1 1-1 0zm-1.456-3.804v-2.401l-.003-.388h-.39a.398.398 0 0 1-.398-.396v-.317a.398.398 0 0 1 .398-.396h3.483a.398.398 0 0 1 .398.396v.317a.398.398 0 0 1-.402.396h-.39v2.79l.684 1.847-.027.024c-.509.526-4.225.586-4.225.586h-.036l.908-2.458z"/><path d="M16.043 15.58a.541.541 0 0 0 .542-.539.542.542 0 0 0-1.085 0 .541.541 0 0 0 .543.54z"/></g></svg><svg viewBox="0 0 32.8 32.799999" height="41" width="41" fill-rule="evenodd" x="2189" y="554"><ellipse ry="14.222" rx="14.222" cy="825.316" cx="16.084" opacity=".99" fill="#4e73db" stroke="#fff" stroke-width="3.556" transform="translate(0 -809.09)"/><path d="M22.876 9.797a.139.139 0 0 0-.148-.013l-13.351 6.77a.136.136 0 0 0 .02.251l4.226 1.332a.136.136 0 0 0 .133-.028l6.427-5.448-4.936 5.794a.137.137 0 0 0-.028.127.14.14 0 0 0 .092.092l4.96 1.498a.16.16 0 0 0 .04.006.147.147 0 0 0 .068-.018.141.141 0 0 0 .066-.087l2.479-10.136a.137.137 0 0 0-.048-.14zm-6.114 10.357l-1.37-.418a.134.134 0 0 0-.122.02.135.135 0 0 0-.056.11v2.565a.136.136 0 0 0 .138.136.139.139 0 0 0 .116-.063l1.371-2.148a.136.136 0 0 0-.076-.202z" fill="#fff"/></svg><svg viewBox="0 0 32.8 32.799999" height="41" width="41" fill-rule="evenodd" x="2230" y="595"><ellipse ry="14.222" rx="14.222" cy="825.316" cx="16.084" opacity=".99" fill="#ff4e50" stroke="#fff" stroke-width="3.556" transform="translate(0 -809.09)"/><path d="M21.396 13.008h-4.542l1.792-2.15c.028.006.053.017.083.017a.533.533 0 1 0-.534-.533c0 .064.016.123.037.18l-2.072 2.486h-.196l-2.071-2.487a.535.535 0 0 0 .036-.18.535.535 0 0 0-1.067 0c0 .295.24.534.533.534.03 0 .056-.011.083-.016l1.792 2.149h-4.54c-.59 0-1.067.478-1.067 1.066v7.467c0 .588.478 1.066 1.067 1.066h10.667c.589 0 1.066-.478 1.066-1.066v-7.467c0-.588-.477-1.066-1.066-1.066zm-2.134 7.466c0 .588-.477 1.067-1.067 1.067h-6.4a1.067 1.067 0 0 1-1.066-1.067V15.14c0-.59.478-1.067 1.066-1.067h6.4c.59 0 1.067.478 1.067 1.067v5.333zm1.572-4.767a.762.762 0 1 1 0-1.524.762.762 0 0 1 0 1.524z" fill="#fff"/></svg></svg>