<svg xmlns="http://www.w3.org/2000/svg" width="24px" height="25px" viewBox="0 0 24 25"><path d="M2.927.963C5-.483 7.795.733 9.217 2.568c1.664 1.745.817 4.686 2.648 6.3 1.557 1.646 3.057 3.41 4.897 4.726 4.696 1.095 7.637 3.526 6.938 7.81l-.327.694c-1.86-1.68-4.473-3.107-4.736-2.61-1.457 1.155 1.652 3.044 2.633 4.345-1.766 1.305-4.644.508-6.173-1.326-1.86-1.546-1.012-4.516-2.755-6.13-1.626-1.666-3.165-3.45-4.976-4.916-1.8-.817-4.04-.777-5.433-2.382C.453 7.612-.52 4.86.92 3.048c1.422.676 2.464 2.6 4.178 2.252.204-1.765-1.616-2.802-2.17-4.337z" fill="#ffffff"/></svg>