<?xml version="1.0" encoding="UTF-8" standalone="no"?><svg width="403" height="421" viewBox="0 0 403 421" xmlns="http://www.w3.org/2000/svg" xmlns:xlink="http://www.w3.org/1999/xlink"><svg viewBox="0 0 141.11111 141.11111" height="12" width="16" id="email"><path d="M11.274 19.327a8.489 8.489 0 0 0-8.493 8.493v84.936c0 4.69 3.8 8.494 8.493 8.494h118.911a8.497 8.497 0 0 0 8.494-8.494V27.82c0-4.697-3.8-8.493-8.494-8.493H11.275zm93.43 17.25h16.988v16.987h-16.989V36.577zM36.754 70.552h67.948v8.493H36.755v-8.493zm0 16.987h67.948v8.493H36.755V87.54z" fill="#5d6063"/></svg><svg viewBox="0 0 141.11111 141.11111" width="16" height="16" id="f-logo" x="16" y="12"><path d="M103.58 4.701l-17.06-.027c-19.167 0-31.554 12.708-31.554 32.377V51.98H37.812a2.683 2.683 0 0 0-2.682 2.684v21.629a2.683 2.683 0 0 0 2.682 2.683h17.154v54.577c0 1.483 1.2 2.683 2.683 2.683h22.38a2.683 2.683 0 0 0 2.683-2.683V78.976h20.057c1.482 0 2.683-1.2 2.683-2.683l.008-21.63a2.687 2.687 0 0 0-2.684-2.683H82.712V39.325c0-6.083 1.45-9.17 9.373-9.17l11.493-.005a2.682 2.682 0 0 0 2.681-2.682V7.384c0-1.48-1.199-2.68-2.678-2.683z" fill="#ccc"/></svg><svg viewBox="0 0 141.11111 141.11111" width="16" height="16" id="f-logo_hover" x="32" y="28"><path d="M103.58 4.701l-17.06-.027c-19.167 0-31.554 12.708-31.554 32.377V51.98H37.812a2.683 2.683 0 0 0-2.682 2.684v21.629a2.683 2.683 0 0 0 2.682 2.683h17.154v54.577c0 1.483 1.2 2.683 2.683 2.683h22.38a2.683 2.683 0 0 0 2.683-2.683V78.976h20.057c1.482 0 2.683-1.2 2.683-2.683l.008-21.63a2.687 2.687 0 0 0-2.684-2.683H82.712V39.325c0-6.083 1.45-9.17 9.373-9.17l11.493-.005a2.682 2.682 0 0 0 2.681-2.682V7.384c0-1.48-1.199-2.68-2.678-2.683z" fill="#248cec"/></svg><svg viewBox="0 0 141.11111 141.11111" height="32" width="32" id="gear" x="48" y="44"><g transform="matrix(11.15164 0 0 11.05556 -12.978 -9148.412)" fill="#f4b60d"><path d="M12.877 832.619l-1.143-.229a4.506 4.506 0 0 0-.2-.481l.647-.971a.746.746 0 0 0-.093-.941l-.718-.718a.745.745 0 0 0-.941-.093l-.971.647a4.664 4.664 0 0 0-.481-.2l-.229-1.143a.746.746 0 0 0-.732-.6H7.002a.746.746 0 0 0-.732.6l-.229 1.143a4.614 4.614 0 0 0-.48.2l-.972-.647a.745.745 0 0 0-.941.093l-.718.718a.746.746 0 0 0-.093.941l.647.971a4.53 4.53 0 0 0-.2.481l-1.143.229a.746.746 0 0 0-.6.731v1.015c0 .356.251.662.6.732l1.143.229c.058.165.125.326.2.481l-.647.971a.746.746 0 0 0 .093.941l.718.718a.745.745 0 0 0 .941.093l.971-.647c.156.075.316.142.481.199l.23 1.144c.069.349.375.6.73.6h1.015a.746.746 0 0 0 .732-.6l.229-1.144c.165-.057.326-.124.48-.199l.972.647a.745.745 0 0 0 .941-.093l.718-.718a.746.746 0 0 0 .093-.941l-.647-.971a4.51 4.51 0 0 0 .2-.481l1.143-.229c.35-.07.6-.376.6-.732v-1.015a.746.746 0 0 0-.6-.731zm-1.29 1.975a.746.746 0 0 0-.558.486 3.637 3.637 0 0 1-.167.401.745.745 0 0 0 .051.739l.647.972-.717.717-.971-.647a.747.747 0 0 0-.74-.051 3.86 3.86 0 0 1-.4.167.746.746 0 0 0-.486.558l-.23 1.144H7.003l-.229-1.144a.746.746 0 0 0-.486-.558 3.711 3.711 0 0 1-.401-.167.745.745 0 0 0-.74.051l-.97.647-.718-.717.647-.972c.147-.22.166-.5.051-.738a3.804 3.804 0 0 1-.167-.401.746.746 0 0 0-.558-.487l-1.143-.229v-1.015l1.143-.228a.747.747 0 0 0 .558-.486c.048-.138.104-.272.167-.402a.745.745 0 0 0-.05-.739l-.648-.971.717-.717.972.647a.746.746 0 0 0 .738.051c.13-.063.263-.119.401-.167a.746.746 0 0 0 .487-.558l.229-1.144h1.015l.228 1.144a.746.746 0 0 0 .487.558c.137.048.27.104.4.167a.758.758 0 0 0 .74-.051l.97-.647.718.717-.647.971a.747.747 0 0 0-.05.739c.062.129.118.263.166.401.087.25.3.435.558.486l1.144.229v1.015l-1.144.229z"/><path d="M7.51 831.247a2.611 2.611 0 1 0 0 5.222 2.611 2.611 0 0 0 0-5.222zm0 4.895a2.285 2.285 0 1 1 0-4.57 2.285 2.285 0 0 1 0 4.57z"/><path d="M7.51 832.366a1.491 1.491 0 1 0-.003 2.982 1.491 1.491 0 0 0 .002-2.982zm0 2.611a1.12 1.12 0 1 1 0-2.238 1.12 1.12 0 0 1 0 2.238z"/></g></svg><svg viewBox="0 0 141.11111 141.11111" height="16" width="10" id="geo_loc" x="80" y="76"><path d="M70.75 4.437c-27.302 0-49.435 22.13-49.435 49.435 0 27.305 49.435 82.393 49.435 82.393s49.436-55.088 49.436-82.393S98.052 4.437 70.75 4.437zm0 24.717c13.652 0 24.718 11.066 24.718 24.718 0 13.653-11.066 24.718-24.718 24.718-13.651 0-24.718-11.065-24.718-24.718 0-13.652 11.067-24.718 24.718-24.718z" fill="#5d6063"/></svg><svg viewBox="0 0 141.11111 141.11111" width="16" height="16" id="l-in-logo" x="90" y="92"><path d="M138.647 85.048v50.191H109.53V88.386c0-11.78-4.198-19.786-14.733-19.786-8.057 0-12.81 5.42-14.932 10.637-.764 1.878-.996 4.51-.996 7.106v48.89H49.783s.39-79.324 0-87.54h29.093v12.408c-.04.102-.124.187-.164.3h.164v-.3c3.887-5.963 10.773-14.461 26.236-14.461 19.192 0 33.535 12.51 33.535 39.408zM19.327 5.486c-9.953 0-16.47 6.53-16.47 15.14 0 8.38 6.325 15.13 16.096 15.13h.176c10.172 0 16.475-6.75 16.475-15.13-.198-8.61-6.302-15.14-16.277-15.14zM4.594 135.239h29.098v-87.55H4.594v87.55z" fill="#ccc"/></svg><svg viewBox="0 0 141.11111 141.11111" width="16" height="16" id="l-in-logo_hover" x="106" y="108"><path d="M138.647 85.048v50.191H109.53V88.386c0-11.78-4.198-19.786-14.733-19.786-8.057 0-12.81 5.42-14.932 10.637-.764 1.878-.996 4.51-.996 7.106v48.89H49.783s.39-79.324 0-87.54h29.093v12.408c-.04.102-.124.187-.164.3h.164v-.3c3.887-5.963 10.773-14.461 26.236-14.461 19.192 0 33.535 12.51 33.535 39.408zM19.327 5.486c-9.953 0-16.47 6.53-16.47 15.14 0 8.38 6.325 15.13 16.096 15.13h.176c10.172 0 16.475-6.75 16.475-15.13-.198-8.61-6.302-15.14-16.277-15.14zM4.594 135.239h29.098v-87.55H4.594v87.55z" fill="#248cec"/></svg><svg viewBox="0 0 500.00001 500.00001" height="36" width="36" id="logo-bg" x="122" y="124"><defs><linearGradient id="hd"><stop offset="0" stop-color="#e99500"/><stop offset="1" stop-color="#f4c100" stop-opacity=".799"/></linearGradient><linearGradient id="hc"><stop offset="0" stop-color="#ffb82a"/><stop offset="1" stop-color="#ffd75f" stop-opacity=".658"/></linearGradient><linearGradient id="hb"><stop offset="0" stop-color="#ffc343"/><stop offset="1" stop-color="#ffde7c"/></linearGradient><linearGradient id="ha"><stop offset="0" stop-color="#f7a50d"/><stop offset="1" stop-color="#fbcb2b" stop-opacity=".723"/></linearGradient><linearGradient gradientUnits="userSpaceOnUse" y2="802.384" x2="250" y1="556.155" x1="2.377" id="he" xlink:href="#ha"/><linearGradient gradientUnits="userSpaceOnUse" y2="965.929" x2="250" y1="874.105" x1="-6.712" id="hg" xlink:href="#hb"/><linearGradient gradientUnits="userSpaceOnUse" y2="1056.264" x2="502.59" y1="802.384" x1="250" id="hh" xlink:href="#hc"/><linearGradient gradientUnits="userSpaceOnUse" y2="802.384" x2="379.436" y1="555.144" x1="377.28" id="hf" xlink:href="#hd"/></defs><g transform="translate(0 -552.362)"><path fill="none" d="M0 552.362h500v500H0z"/><path fill="url(#he)" d="M.357 552.362H250v250.022H.357z"/><path fill="url(#hf)" d="M250.001 552.361h249.643v250.022H250.001z"/><path fill="url(#hg)" d="M.359 802.383h249.643v250.022H.359z"/><path fill="url(#hh)" d="M250 802.384h249.643v250.022H250z"/><g transform="matrix(38.1189 0 0 37.79049 213.937 -30709.622)" fill="#fff"><path d="M12.877 832.619l-1.143-.229a4.506 4.506 0 0 0-.2-.481l.647-.971a.746.746 0 0 0-.093-.941l-.718-.718a.745.745 0 0 0-.941-.093l-.971.647a4.664 4.664 0 0 0-.481-.2l-.229-1.143a.746.746 0 0 0-.732-.6H7.002a.746.746 0 0 0-.732.6l-.229 1.143a4.614 4.614 0 0 0-.48.2l-.972-.647a.745.745 0 0 0-.941.093l-.718.718a.746.746 0 0 0-.093.941l.647.971a4.53 4.53 0 0 0-.2.481l-1.143.229a.746.746 0 0 0-.6.731v1.015c0 .356.251.662.6.732l1.143.229c.058.165.125.326.2.481l-.647.971a.746.746 0 0 0 .093.941l.718.718a.745.745 0 0 0 .941.093l.971-.647c.156.075.316.142.481.199l.23 1.144c.069.349.375.6.73.6h1.015a.746.746 0 0 0 .732-.6l.229-1.144c.165-.057.326-.124.48-.199l.972.647a.745.745 0 0 0 .941-.093l.718-.718a.746.746 0 0 0 .093-.941l-.647-.971a4.51 4.51 0 0 0 .2-.481l1.143-.229c.35-.07.6-.376.6-.732v-1.015a.746.746 0 0 0-.6-.731zm-1.29 1.975a.746.746 0 0 0-.558.486 3.637 3.637 0 0 1-.167.401.745.745 0 0 0 .051.739l.647.972-.717.717-.971-.647a.747.747 0 0 0-.74-.051 3.86 3.86 0 0 1-.4.167.746.746 0 0 0-.486.558l-.23 1.144H7.003l-.229-1.144a.746.746 0 0 0-.486-.558 3.711 3.711 0 0 1-.401-.167.745.745 0 0 0-.74.051l-.97.647-.718-.717.647-.972c.147-.22.166-.5.051-.738a3.804 3.804 0 0 1-.167-.401.746.746 0 0 0-.558-.487l-1.143-.229v-1.015l1.143-.228a.747.747 0 0 0 .558-.486c.048-.138.104-.272.167-.402a.745.745 0 0 0-.05-.739l-.648-.971.717-.717.972.647a.746.746 0 0 0 .738.051c.13-.063.263-.119.401-.167a.746.746 0 0 0 .487-.558l.229-1.144h1.015l.228 1.144a.746.746 0 0 0 .487.558c.137.048.27.104.4.167a.758.758 0 0 0 .74-.051l.97-.647.718.717-.647.971a.747.747 0 0 0-.05.739c.062.129.118.263.166.401.087.25.3.435.558.486l1.144.229v1.015l-1.144.229z"/><path d="M7.51 831.247a2.611 2.611 0 1 0 0 5.222 2.611 2.611 0 0 0 0-5.222zm0 4.895a2.285 2.285 0 1 1 0-4.57 2.285 2.285 0 0 1 0 4.57z"/><path d="M7.51 832.366a1.491 1.491 0 1 0-.003 2.982 1.491 1.491 0 0 0 .002-2.982zm0 2.611a1.12 1.12 0 1 1 0-2.238 1.12 1.12 0 0 1 0 2.238z"/></g></g></svg><svg viewBox="0 0 141.11111 141.11111" height="32" width="32" id="params" x="158" y="160"><g transform="matrix(4.11884 0 0 4.11884 -32.219 -3294.285)" fill="#f4b60d"><path d="M17 806.911v-3.022c0-1.654-1.346-3-3-3s-3 1.346-3 3v3.022c-1.208.914-2 2.347-2 3.978 0 1.631.792 3.065 2 3.977v15.023c0 1.654 1.346 3 3 3s3-1.346 3-3v-15.023c1.208-.912 2-2.346 2-3.977 0-1.631-.792-3.064-2-3.978zm-4-3.022a1 1 0 1 1 2 0v2.1a5.063 5.063 0 0 0-2 0v-2.1zm2 26a1 1 0 1 1-2 0v-14.101a4.99 4.99 0 0 0 2 0v14.101zm1.865-18.16c-.016.053-.03.106-.049.158a2.954 2.954 0 0 1-.378.737c-.003.006-.01.01-.013.015a2.964 2.964 0 0 1-.626.635 2.96 2.96 0 0 1-.8.43 2.942 2.942 0 0 1-1 .185c-.352 0-.685-.072-1-.185a2.963 2.963 0 0 1-.808-.438 2.962 2.962 0 0 1-.616-.627c-.004-.005-.01-.009-.014-.015a2.95 2.95 0 0 1-.377-.737c-.02-.052-.034-.105-.05-.158a2.915 2.915 0 0 1-.134-.84c0-.295.055-.574.135-.842.015-.052.03-.105.049-.156.094-.263.216-.514.377-.738l.014-.016a3.06 3.06 0 0 1 .616-.627l.01-.007c.241-.18.51-.327.799-.43a2.966 2.966 0 0 1 1-.184c.352 0 .685.072 1 .184.289.103.558.25.799.43l.01.007c.235.178.442.391.616.627.004.006.01.01.013.016.162.224.284.475.378.738.019.051.033.104.05.156.08.268.134.547.134.842 0 .293-.055.573-.135.84zM39 806.911v-3.022c0-1.654-1.346-3-3-3s-3 1.346-3 3v3.022c-1.208.914-2 2.347-2 3.978 0 1.631.792 3.065 2 3.977v15.023c0 1.654 1.346 3 3 3s3-1.346 3-3v-15.023c1.208-.912 2-2.346 2-3.977 0-1.631-.792-3.064-2-3.978zm-4-3.022a1 1 0 1 1 2 0v2.1a5.065 5.065 0 0 0-2 0v-2.1zm2 26a1 1 0 1 1-2 0v-14.101a4.99 4.99 0 0 0 2 0v14.101zm1.865-18.16c-.016.053-.03.106-.049.158a2.954 2.954 0 0 1-.378.737c-.003.006-.01.01-.013.015-.174.239-.381.45-.616.627l-.01.008c-.242.182-.51.328-.8.43a2.943 2.943 0 0 1-1 .185c-.352 0-.685-.072-1-.185a2.963 2.963 0 0 1-.798-.43l-.01-.008a2.968 2.968 0 0 1-.616-.627c-.004-.005-.01-.009-.014-.015a2.954 2.954 0 0 1-.378-.737c-.018-.052-.033-.105-.048-.158a2.915 2.915 0 0 1-.135-.84c0-.295.055-.574.135-.842.015-.052.03-.105.049-.156.094-.263.216-.514.377-.738l.014-.016c.174-.236.381-.449.616-.627l.01-.007c.241-.18.51-.327.799-.43a2.966 2.966 0 0 1 1-.184c.352 0 .685.072 1 .184.289.103.557.25.799.43l.01.007c.235.178.442.391.616.627.004.006.01.01.013.016.162.224.284.475.378.738.019.051.033.104.05.156.08.268.134.547.134.842 0 .293-.055.573-.135.84zM28 818.911v-15.022c0-1.654-1.346-3-3-3s-3 1.346-3 3v15.022c-1.208.914-2 2.347-2 3.978 0 1.631.792 3.065 2 3.977v3.023c0 1.654 1.346 3 3 3s3-1.346 3-3v-3.023c1.208-.912 2-2.346 2-3.977 0-1.631-.792-3.064-2-3.978zm-4-15.022a1 1 0 1 1 2 0v14.1a5.141 5.141 0 0 0-2 0v-14.1zm2 26a1 1 0 1 1-2 0v-2.101a4.99 4.99 0 0 0 2 0v2.101zm1.865-6.16c-.015.053-.03.106-.049.158a2.957 2.957 0 0 1-.378.737c-.003.006-.01.009-.013.015-.174.239-.381.45-.617.627a2.99 2.99 0 0 1-.808.438 2.943 2.943 0 0 1-1 .185c-.353 0-.686-.072-1-.185a2.991 2.991 0 0 1-.799-.43l-.01-.008a2.97 2.97 0 0 1-.616-.627c-.004-.006-.01-.009-.014-.015a2.957 2.957 0 0 1-.378-.737c-.018-.052-.033-.105-.048-.158a2.915 2.915 0 0 1-.135-.84c0-.295.055-.574.135-.842.015-.052.03-.105.048-.156.095-.263.217-.513.378-.738l.014-.016c.174-.236.381-.449.616-.627l.01-.008c.241-.179.51-.326.799-.429a2.966 2.966 0 0 1 1-.184c.352 0 .685.072 1 .184.289.103.558.25.799.429l.01.008c.235.178.442.391.616.627.004.006.01.01.013.016.161.225.284.475.378.738.019.051.034.104.05.156.08.268.134.547.134.842 0 .293-.055.573-.135.84z"/></g></svg><svg viewBox="0 0 141.11111 141.11111" height="16" width="10" id="phone" x="190" y="192"><path d="M37.794 4.444a8.24 8.24 0 0 0-8.238 8.238v115.335a8.24 8.24 0 0 0 8.238 8.238H103.7a8.24 8.24 0 0 0 8.239-8.238V12.682a8.24 8.24 0 0 0-8.239-8.238H37.794zm0 16.476H103.7v90.62H37.794V20.92zm32.954 98.859c4.55 0 8.238 1.845 8.238 4.119s-3.688 4.12-8.238 4.12c-4.55 0-8.238-1.846-8.238-4.12s3.688-4.12 8.238-4.12z" fill="#5d6063" fill-opacity=".592"/></svg><svg viewBox="0 0 141.11111 141.11111" width="35" height="35" id="plus" x="200" y="208"><path fill="#fff" d="M139.005 76.946V63.94H77.23V2.165H64.225V63.94H2.449v13.006h61.776v61.775H77.23V76.946z"/></svg><svg viewBox="0 0 141.11111 141.11111" width="20" height="20" id="plus20_20" x="235" y="243"><path fill="#fff" d="M139.005 76.946V63.94H77.23V2.165H64.225V63.94H2.449v13.006h61.776v61.775H77.23V76.946z"/></svg><svg viewBox="0 0 141.11111 141.11111" width="16" height="16" id="rss" x="255" y="263"><path d="M34.708 106.355c3.196 3.192 5.139 7.522 5.15 12.343-.011 4.811-1.954 9.142-5.138 12.32l-.012.006a17.459 17.459 0 0 1-12.39 5.116c-4.839 0-9.184-1.947-12.373-5.122-3.18-3.178-5.138-7.503-5.138-12.32 0-4.821 1.958-9.161 5.138-12.346v.003c3.19-3.178 7.536-5.133 12.373-5.133 4.844 0 9.197 1.961 12.39 5.133zm0-.003v.003h.006l-.006-.003zM9.945 131.024v-.006H9.94l.006.006zM4.821 49.242v25.19c16.445.01 31.997 6.47 43.637 18.127 11.637 11.62 18.07 27.197 18.096 43.698h.009v.046h25.293c-.02-23.994-9.774-45.73-25.542-61.51C50.543 59.017 28.817 49.258 4.82 49.244zm.046-44.858v25.177c58.783.043 106.568 47.902 106.608 106.742h25.25c-.017-36.366-14.798-69.314-38.685-93.217C74.144 19.19 41.219 4.4 4.867 4.384z" fill="#ccc"/></svg><svg viewBox="0 0 141.11111 141.11111" width="16" height="16" id="rss_hover" x="271" y="279"><path d="M34.708 106.355c3.196 3.192 5.139 7.522 5.15 12.343-.011 4.811-1.954 9.142-5.138 12.32l-.012.006a17.459 17.459 0 0 1-12.39 5.116c-4.839 0-9.184-1.947-12.373-5.122-3.18-3.178-5.138-7.503-5.138-12.32 0-4.821 1.958-9.161 5.138-12.346v.003c3.19-3.178 7.536-5.133 12.373-5.133 4.844 0 9.197 1.961 12.39 5.133zm0-.003v.003h.006l-.006-.003zM9.945 131.024v-.006H9.94l.006.006zM4.821 49.242v25.19c16.445.01 31.997 6.47 43.637 18.127 11.637 11.62 18.07 27.197 18.096 43.698h.009v.046h25.293c-.02-23.994-9.774-45.73-25.542-61.51C50.543 59.017 28.817 49.258 4.82 49.244zm.046-44.858v25.177c58.783.043 106.568 47.902 106.608 106.742h25.25c-.017-36.366-14.798-69.314-38.685-93.217C74.144 19.19 41.219 4.4 4.867 4.384z" fill="#248cec"/></svg><svg viewBox="0 0 141.11111 141.11111" width="16" height="16" id="s-logo" x="287" y="295"><g transform="matrix(.45257 0 0 .45257 4.826 4.422)"><path d="M282.966 176.612a136.24 136.24 0 0 0 3.204-29.405c0-75.661-62.197-137.011-138.941-137.011-8.093 0-16.032.692-23.752 2.003C111.061 4.479 96.367 0 80.618 0 36.101 0 .032 35.577.032 79.475c0 14.657 4.051 28.385 11.07 40.193a135.273 135.273 0 0 0-2.813 27.539c0 75.688 62.197 134.753 138.932 134.753 8.694 0 17.197-.792 25.436-2.294 11.352 6.008 24.316 11.698 38.099 11.698 44.508 0 80.577-35.568 80.577-79.466a78.266 78.266 0 0 0-8.367-35.286z" fill="#ccc"/><path d="M210.6 203.131c-5.362 7.62-13.21 13.61-23.542 17.916-10.333 4.342-22.568 6.491-36.724 6.491-16.978 0-30.98-2.95-42.023-8.858-7.811-4.242-14.174-9.923-19.072-17.006-4.88-7.083-7.328-13.983-7.328-20.693 0-3.878 1.466-7.21 4.397-9.969 2.931-2.795 6.673-4.169 11.198-4.169 3.678 0 6.8 1.065 9.331 3.241 2.549 2.158 4.725 5.353 6.509 9.604 2.194 5.053 4.552 9.268 7.11 12.645 2.531 3.377 6.118 6.181 10.724 8.375 4.625 2.176 10.697 3.286 18.198 3.286 10.324 0 18.717-2.203 25.181-6.637 6.445-4.415 9.686-9.959 9.686-16.578 0-5.244-1.748-9.532-5.226-12.782-3.487-3.277-7.984-5.781-13.501-7.501-5.508-1.739-12.882-3.578-22.131-5.517-12.354-2.649-22.705-5.781-31.025-9.331-8.33-3.578-14.957-8.43-19.837-14.575-4.898-6.172-7.338-13.819-7.338-22.95 0-8.721 2.576-16.45 7.747-23.214 5.162-6.773 12.618-11.971 22.413-15.613 9.777-3.641 21.285-5.453 34.494-5.453 10.56 0 19.7 1.211 27.411 3.605 7.711 2.422 14.093 5.626 19.172 9.623 5.089 3.997 8.812 8.184 11.152 12.581 2.349 4.37 3.523 8.685 3.523 12.836 0 3.814-1.457 7.274-4.388 10.324-2.931 3.059-6.591 4.597-10.97 4.597-3.997 0-7.028-.929-9.104-2.758-2.076-1.839-4.324-4.843-6.737-9.022-3.141-5.972-6.882-10.633-11.27-13.974-4.388-3.35-11.416-5.025-21.121-5.025-8.985 0-16.25 1.803-21.767 5.453-5.517 3.623-8.284 8.011-8.284 13.118 0 3.15.956 5.899 2.822 8.202 1.866 2.321 4.452 4.279 7.756 5.927a55.661 55.661 0 0 0 9.959 3.905c3.359.938 8.922 2.294 16.678 4.097 9.686 2.085 18.471 4.397 26.337 6.91 7.857 2.522 14.557 5.59 20.074 9.167 5.508 3.605 9.823 8.175 12.909 13.692 3.086 5.499 4.643 12.244 4.643 20.238.003 9.56-2.691 18.163-8.036 25.792z" fill="#fff"/></g></svg><svg viewBox="0 0 141.11111 141.11111" width="16" height="16" id="s-logo_hover" x="303" y="311"><g transform="matrix(.45257 0 0 .45257 4.826 4.422)"><path d="M282.966 176.612a136.24 136.24 0 0 0 3.204-29.405c0-75.661-62.197-137.011-138.941-137.011-8.093 0-16.032.692-23.752 2.003C111.061 4.479 96.367 0 80.618 0 36.101 0 .032 35.577.032 79.475c0 14.657 4.051 28.385 11.07 40.193a135.273 135.273 0 0 0-2.813 27.539c0 75.688 62.197 134.753 138.932 134.753 8.694 0 17.197-.792 25.436-2.294 11.352 6.008 24.316 11.698 38.099 11.698 44.508 0 80.577-35.568 80.577-79.466a78.266 78.266 0 0 0-8.367-35.286z" fill="#248cec"/><path d="M210.6 203.131c-5.362 7.62-13.21 13.61-23.542 17.916-10.333 4.342-22.568 6.491-36.724 6.491-16.978 0-30.98-2.95-42.023-8.858-7.811-4.242-14.174-9.923-19.072-17.006-4.88-7.083-7.328-13.983-7.328-20.693 0-3.878 1.466-7.21 4.397-9.969 2.931-2.795 6.673-4.169 11.198-4.169 3.678 0 6.8 1.065 9.331 3.241 2.549 2.158 4.725 5.353 6.509 9.604 2.194 5.053 4.552 9.268 7.11 12.645 2.531 3.377 6.118 6.181 10.724 8.375 4.625 2.176 10.697 3.286 18.198 3.286 10.324 0 18.717-2.203 25.181-6.637 6.445-4.415 9.686-9.959 9.686-16.578 0-5.244-1.748-9.532-5.226-12.782-3.487-3.277-7.984-5.781-13.501-7.501-5.508-1.739-12.882-3.578-22.131-5.517-12.354-2.649-22.705-5.781-31.025-9.331-8.33-3.578-14.957-8.43-19.837-14.575-4.898-6.172-7.338-13.819-7.338-22.95 0-8.721 2.576-16.45 7.747-23.214 5.162-6.773 12.618-11.971 22.413-15.613 9.777-3.641 21.285-5.453 34.494-5.453 10.56 0 19.7 1.211 27.411 3.605 7.711 2.422 14.093 5.626 19.172 9.623 5.089 3.997 8.812 8.184 11.152 12.581 2.349 4.37 3.523 8.685 3.523 12.836 0 3.814-1.457 7.274-4.388 10.324-2.931 3.059-6.591 4.597-10.97 4.597-3.997 0-7.028-.929-9.104-2.758-2.076-1.839-4.324-4.843-6.737-9.022-3.141-5.972-6.882-10.633-11.27-13.974-4.388-3.35-11.416-5.025-21.121-5.025-8.985 0-16.25 1.803-21.767 5.453-5.517 3.623-8.284 8.011-8.284 13.118 0 3.15.956 5.899 2.822 8.202 1.866 2.321 4.452 4.279 7.756 5.927a55.661 55.661 0 0 0 9.959 3.905c3.359.938 8.922 2.294 16.678 4.097 9.686 2.085 18.471 4.397 26.337 6.91 7.857 2.522 14.557 5.59 20.074 9.167 5.508 3.605 9.823 8.175 12.909 13.692 3.086 5.499 4.643 12.244 4.643 20.238.003 9.56-2.691 18.163-8.036 25.792z" fill="#fff"/></g></svg><svg viewBox="0 0 141.11111 141.11111" width="20" height="30" id="search" x="319" y="327"><path d="M132.59 116.627l-31.227-26.559c-3.228-2.905-6.68-4.239-9.47-4.11 7.372-8.634 11.825-19.837 11.825-32.08 0-27.304-22.134-49.438-49.438-49.438-27.303 0-49.437 22.134-49.437 49.438 0 27.304 22.134 49.438 49.437 49.438 12.244 0 23.446-4.453 32.08-11.825-.128 2.79 1.205 6.241 4.11 9.47l26.56 31.227c4.547 5.052 11.976 5.478 16.507.947 4.531-4.532 4.106-11.96-.947-16.508zm-78.31-29.79c-18.202 0-32.958-14.757-32.958-32.959 0-18.202 14.756-32.958 32.958-32.958 18.202 0 32.959 14.756 32.959 32.958 0 18.202-14.756 32.958-32.959 32.958z" fill="#535659"/></svg><svg viewBox="0 0 141.11111 141.11111" height="32" width="32" id="truck" x="339" y="357"><g transform="matrix(4.21093 0 0 4.21093 -34.515 -3365.3)" fill="#f4b60d"><path d="M33.833 811.335a1 1 0 0 0-.833-.446h-1a1 1 0 0 0-1 1v6a1 1 0 0 0 1 1h4a1 1 0 0 0 1-1v-1.5a.997.997 0 0 0-.168-.554l-3-4.5zM36 817.889h-4v-6h1l3 4.5v1.5z"/><path d="M40.626 815.22l-4.033-6.05a3.02 3.02 0 0 0-2.517-1.348h-4.034v-2.016a3.029 3.029 0 0 0-3.025-3.026H11.89a3.029 3.029 0 0 0-3.025 3.026v11.092a3.028 3.028 0 0 0 3.025 3.025h.001v3.025a3.029 3.029 0 0 0 3.025 3.025h1.151c.45 1.735 2.017 3.025 3.892 3.025 1.872 0 3.438-1.29 3.89-3.025h5.327c.45 1.735 2.016 3.025 3.891 3.025 1.873 0 3.44-1.29 3.89-3.025h1.152a3.029 3.029 0 0 0 3.026-3.025v-6.05c0-.599-.176-1.18-.509-1.679zm-28.736 2.686c-.556 0-1.008-.451-1.008-1.008v-11.092c0-.557.452-1.01 1.008-1.01h15.127c.557 0 1.009.453 1.009 1.01V816.9c0 .556-.452 1.007-1.009 1.007H11.89zm8.069 9.075a2.016 2.016 0 1 1-.002-4.031 2.016 2.016 0 0 1 .002 4.031zm13.108 0a2.016 2.016 0 1 1-.001-4.032 2.016 2.016 0 0 1 .001 4.032zm6.05-4.033c0 .557-.45 1.008-1.008 1.008h-1.152c-.45-1.734-2.017-3.025-3.89-3.025-1.875 0-3.44 1.29-3.891 3.025h-5.328c-.45-1.734-2.017-3.025-3.89-3.025-1.874 0-3.44 1.29-3.89 3.025h-1.152c-.557 0-1.008-.45-1.008-1.008v-3.025h13.11a3.028 3.028 0 0 0 3.024-3.025v-7.06h4.034c.337 0 .652.17.839.45l4.033 6.05c.11.166.17.36.17.56v6.05z"/></g></svg><svg viewBox="0 0 141.11111 141.11111" width="16" height="16" id="tw-logo" x="371" y="389"><path d="M5.406 104.342c5.743-.7 11.566.054 17.31-.89 2.884-.457 5.526-1.428 8.142-2.453-6.47-4.151-12.295-8.897-17.714-14.586-1.941-2.022-.54-5.419 2.292-5.5 2.319.108 4.583-.08 6.794-.539-5.635-7.145-10.003-14.829-13.4-23.457-.916-2.318 1.78-4.664 3.964-3.963 1.267.512 2.56.863 3.882 1.132-4.017-9.652-4.853-19.385-2.615-30.062.512-2.454 3.747-3.047 5.392-1.43C32.34 35.267 48.625 41.36 66.043 44.272c-1.538-11.917 6.929-24.588 18.037-28.74 9.22-3.425 21.596-1.08 27.797 6.686 4.153-2.616 9.895-3.479 14.506-4.287 2.426-.405 4.772 1.968 3.343 4.367-1.672 2.804-3.262 5.797-5.015 8.655 3.56-1.052 7.226-1.699 10.893-2.157 2.642-.35 4.233 3.72 2.211 5.338-4.287 3.424-8.547 7.334-13.104 10.461-.134 30.278-8.978 55.677-36.02 72.905-22.54 14.398-64.44 11.972-84.04-7.63h-.027c-.863-.215-1.321-.863-1.483-1.563-.755-1.133-.216-2.534.782-3.074.378-.459.863-.81 1.483-.89z" fill="#ccc"/></svg><svg viewBox="0 0 141.11111 141.11111" width="16" height="16" id="tw-logo_hover" x="387" y="405"><path d="M5.406 104.342c5.743-.7 11.566.054 17.31-.89 2.884-.457 5.526-1.428 8.142-2.453-6.47-4.151-12.295-8.897-17.714-14.586-1.941-2.022-.54-5.419 2.292-5.5 2.319.108 4.583-.08 6.794-.539-5.635-7.145-10.003-14.829-13.4-23.457-.916-2.318 1.78-4.664 3.964-3.963 1.267.512 2.56.863 3.882 1.132-4.017-9.652-4.853-19.385-2.615-30.062.512-2.454 3.747-3.047 5.392-1.43C32.34 35.267 48.625 41.36 66.043 44.272c-1.538-11.917 6.929-24.588 18.037-28.74 9.22-3.425 21.596-1.08 27.797 6.686 4.153-2.616 9.895-3.479 14.506-4.287 2.426-.405 4.772 1.968 3.343 4.367-1.672 2.804-3.262 5.797-5.015 8.655 3.56-1.052 7.226-1.699 10.893-2.157 2.642-.35 4.233 3.72 2.211 5.338-4.287 3.424-8.547 7.334-13.104 10.461-.134 30.278-8.978 55.677-36.02 72.905-22.54 14.398-64.44 11.972-84.04-7.63h-.027c-.863-.215-1.321-.863-1.483-1.563-.755-1.133-.216-2.534.782-3.074.378-.459.863-.81 1.483-.89z" fill="#248cec"/></svg></svg>