<svg xmlns="http://www.w3.org/2000/svg" width="612" height="792" viewBox="0 0 612 792"><path d="M391.4 125.5H556v46.77c-54.71.7-109.43 1.08-164.14.47-.96-15.74.3-31.5-.46-47.24z" fill="#ffec5e" fill-rule="evenodd"/><path d="M112.02 182.34c89.78.35 179.64.45 269.42-.38.89 89.37 1.81 178.69 1.31 268.19-89.29.73-178.62.34-267.97 1.62-.59-89.83-1.37-179.64-2.76-269.43z" fill="#ff5e41" fill-rule="evenodd"/><path d="M391.83 183.31c54.56-1.3 109.48.04 164.17-.56V309.2c-54.39 1.63-108.84.12-163.25 1.34-.58-42.41-.88-84.81-.92-127.23z" fill="#fff368" fill-rule="evenodd"/><path d="M57.6 531.33c16.16.26 32.33.04 48.5.2.13 44.98 1.16 89.97 1.51 134.97H58.625c0-4.133-.03-108.597-1.025-135.17z" fill="#ffeb60" fill-rule="evenodd"/><path d="M394.18 531.52c53.92-.98 107.94.5 161.82-1.21v95.46c-53.77-1.71-107.68.39-161.46-.45-.31-31.25-.78-62.54-.36-93.8z" fill="#0a4583" fill-rule="evenodd"/><g fill="#fff" fill-rule="evenodd"><path d="M171.88 126.19c.254 14.173.29 29.432.38 46.65-38.74.61-76.294-1.002-115.005.317l-.13-47.657 114.755.69zM181.82 126.28l199.58-.78c-.17 15.76.28 31.52.06 47.28-66.36-.3-132.72-.38-199.09-.11-.03-15.47-.39-30.94-.55-46.39zM58.99 312.31c.107-60.41-1.648-124.224-1.75-130.13 15.23.39 30.49-.08 45.7.7.65 43.13.76 86.35 1.02 129.5-14.99-.2-29.99-.11-44.97-.07zM59.28 321.81c15.33 1.2 31.02-.75 46.17 1.03.25 66.16.09 132.34.04 198.5-15.88.69-31.99-.01-47.96.29-.38 0-1.15.01-1.53.01 0-62.645 2.962-135.696 3.28-199.83zM480.22 320.34c25.25-.17 50.51-.05 75.78-.42v129.32c-25.01-.01-50.03.04-75.04-.02-.43-42.95-.33-85.92-.74-128.88zM395.19 320.83c25.15-.2 50.23-.01 75.41-.62-1.01 43.11.01 86.52.18 129.75-25.87-.17-51.83-1.03-77.62.18-.72-43.03-.23-86.09-.69-129.12.68-.05 2.04-.14 2.72-.19zM393.65 460.31c54.12-.12 108.24-.4 162.35-.6v60.98c-53.87-.29-107.81.17-161.7.01-.94-20.11-.46-40.26-.65-60.39zM310.32 461.01c24.47-.51 48.88-.43 73.34-.98-1.23 20.27.04 40.6.02 60.93-42.84-.01-85.74-.75-128.54.24.49-20.03-.38-40.14.08-60.13 18.36.49 36.74.05 55.1-.06zM312.41 531.15c23.68-.07 47.38-.06 71.04.23.36 19.19-.18 38.41.33 57.59-18.24-.67-40.29-.21-54.89-.56-24.42.88-49.03-.91-73.41.65-.08-19.3-.03-38.59-.26-57.89 19.06.18 38.12.04 57.19-.02zM116.84 598.36c43.22.38 86.45-.26 129.67-.38.8 22.82.5 45.68.77 68.52H117.35c.03-22.72-.02-45.44-.51-68.14zM256.88 634.74c99.69 1.02 199.42.13 299.12.87v30.89H257.22c-.45-10.58.39-21.2-.34-31.76z"/></g><path d="M256.035 597.654l.75 28.116h127.687l-.562-28.116H256.035zM381.4 125.5h10c.76 15.74-.5 31.5.46 47.24 54.71.61 109.43.23 164.14-.47v10.48c-54.69.6-109.61-.74-164.17.56.04 42.42.34 84.82.92 127.23 54.41-1.22 108.86.29 163.25-1.34v10.72c-25.27.37-50.53.25-75.78.42.41 42.96.31 85.93.74 128.88 25.01.06 50.03.01 75.04.02v10.47c-54.11.2-108.23.48-162.35.6.19 20.13-.29 40.28.65 60.39 53.89.16 107.83-.3 161.7-.01v9.62c-53.88 1.71-107.9.23-161.82 1.21-.42 31.26.05 62.55.36 93.8 53.78.84 107.69-1.26 161.46.45v9.84c-99.7-.74-199.43.15-299.12-.87.73 10.56-.11 21.18.34 31.76h-9.94c-.27-22.84.03-45.7-.77-68.52-43.22.12-86.88.054-130.098-.326.49 22.7.968 46.126.938 68.846h-9.74c-.35-45-1.38-89.99-1.51-134.97-16.17-.16-32.34.06-48.5-.2-.06-3.24.02-6.47-.07-9.7 15.97-.3 32.08.4 47.96-.29.05-66.16-1.23-132.34-1.48-198.5-5.723-.59-36.9.08-44.73-.31.01-3.17-.17-7.06-.29-10.22 14.98-.04 29.98-.13 44.97.07-.26-43.15-.37-86.37-1.02-129.5-15.21-.78-30.47-.31-45.7-.7-.84-2.86-.227-6.38.015-9.023 0-1.47 105.04-.16 115.005-.317-.22-15.55.1-31.11-.38-46.65 3.31-.09 6.63-.12 9.94.09.16 15.45.52 30.92.55 46.39 66.37-.27 132.73-.19 199.09.11.22-15.76-.23-31.52-.06-47.28zm-269.38 56.84c1.39 89.79 2.17 179.6 2.76 269.43 89.35-1.28 178.68-.89 267.97-1.62.5-89.5-.42-178.82-1.31-268.19-89.78.83-179.64.73-269.42.38zm283.17 138.49c-.68.05-2.04.14-2.72.19.46 43.03-.03 86.09.69 129.12 25.79-1.21 51.75-.35 77.62-.18-.17-43.23-1.19-86.64-.18-129.75-25.18.61-50.26.42-75.41.62zm-84.87 140.18c-18.36.11-36.74.55-55.1.06-.46 19.99.41 40.1-.08 60.13 42.8-.99 85.7-.25 128.54-.24.02-20.33-1.25-40.66-.02-60.93-24.46.55-48.87.47-73.34.98zm73.13 70.37c-19.07.06-109.17-.03-128.23-.21.23 19.3.18 38.59.26 57.89 7.32.715 123.296-.245 128.3-.09-.51-19.18.03-38.4-.33-57.59zm-267.245 57.778l-.595-128.127 129.49-.212.63 128.356-129.525-.016zm-.314-67.777l60.738-.098-.1-60.35h7.09l.496 60.81h60.738l.01 6.51-60.668.283.28 60.17h-7.958l-.218-60.45-59.849.098-.56-6.972z" fill="#050505" fill-rule="evenodd" stroke="#000" stroke-width=".567"/><path d="M256.035 597.654H383.91l.562 28.116H256.785l-.75-28.116z" fill="#454444" fill-rule="evenodd" stroke="#000" stroke-width=".567"/><g fill="#454444" fill-rule="evenodd" stroke="#000" stroke-width=".567"><path d="M115.89 521.38h60.738l-.1-60.45-60.918.1.28 60.35zM184.114 521.74h60.738l-.1-60.45-60.918.1.28 60.35zM116.73 588.704h59.786l-.218-60.45-59.849.1.28 60.35zM184.474 588.704h60.737l-.098-60.45-60.92.1.282 60.35z"/></g></svg>